<svg width="32" height="32" viewBox="0 0 32 32" fill="none" xmlns="http://www.w3.org/2000/svg">
<rect width="32" height="32" rx="2" fill="white"/>
<path d="M25.053 10.442H18.4215V8.4209H25.053V10.442ZM26.6636 20.5472C26.2846 21.8609 24.7688 23.5788 21.832 23.5788C18.8951 23.5788 16.5267 21.8609 16.5267 17.8188C16.5267 13.8777 18.7057 11.8567 21.7373 11.8567C24.6741 11.8567 26.4741 13.6756 26.853 16.303C26.9478 16.8083 26.9478 17.5156 26.9478 18.5262H19.3688C19.4636 21.7598 22.6846 21.8609 23.7267 20.5472H26.6636ZM19.3688 16.5051H24.1057C24.0109 14.9893 23.0636 14.282 21.7373 14.282C20.4109 14.282 19.653 14.9893 19.3688 16.5051ZM10.3688 23.5788H4.21094V8.4209H10.8425C16.053 8.52195 16.1478 13.8777 13.4004 15.3935C16.6215 16.7072 16.7162 23.5788 10.3688 23.5788ZM7.05304 14.4841H10.4636C12.832 14.4841 13.2109 11.4525 10.1794 11.4525H7.05304V14.4841ZM10.2741 17.5156H7.05304V20.5472H10.1794C13.1162 20.5472 12.9267 17.5156 10.2741 17.5156Z" fill="#101010"/>
</svg>
